# xmcd
#
# Track frame offsets:
# 150
# 9062
# 18937
# 28887
# 41212
# 53475
# 65112
# 78137
# 90025
# 101650
# 114950
# 129200
#
# Disc length: 1878 seconds
#
#
# Revision: 0
# Processed by: cddbd v1.4PL0 Copyright (c) Steve Scherf et al.
# Submitted via: FreeRIP 2.00 
#
DISCID=7f07540c
DTITLE=Boone, Pat - 
DYEAR=1997
DGENRE=Oldies
TTITLE0=Why Baby Why
TTITLE1=Big Cold Wind
TTITLE2=Long Tall Sally
TTITLE3=I'll See You In My Dreams
TTITLE4=Quando, Quando, Quando
TTITLE5=Speedy Gonzales
TTITLE6=Spring Rain
TTITLE7=I Almost Lost My Mind
TTITLE8=Beach Girl
TTITLE9=Friendly Persuasion (Thee I Love)
TTITLE10=The Exodus Song (This Land Is Mine)
TTITLE11=Moody River
EXTD=
EXTT0=
EXTT1=
EXTT2=
EXTT3=
EXTT4=
EXTT5=
EXTT6=
EXTT7=
EXTT8=
EXTT9=
EXTT10=
EXTT11=
PLAYORDER=
